<svg data-v-423bf9ae="" xmlns="http://www.w3.org/2000/svg" viewBox="0 0 315 90" class="iconLeft"><!----><!----><!----><g data-v-423bf9ae="" id="80094513-b114-4566-a7eb-6bc112ac27ed" fill="#413939" transform="matrix(6.141543388366699,0,0,6.141543388366699,103.97840118408203,-1.5293883085250854)"><path d="M0.98 12.29L0.98 2.69L4.84 2.69L4.84 2.69Q6.23 2.69 6.97 3.41L6.97 3.41L6.97 3.41Q7.71 4.13 7.71 5.35L7.71 5.35L7.71 5.35Q7.71 6.24 7.27 6.90L7.27 6.90L7.27 6.90Q6.82 7.56 6.01 7.83L6.01 7.83L7.94 12.29L6.57 12.29L4.79 8.05L2.21 8.05L2.21 12.29L0.98 12.29ZM2.21 6.93L4.80 6.93L4.80 6.93Q5.53 6.93 5.98 6.50L5.98 6.50L5.98 6.50Q6.43 6.06 6.43 5.35L6.43 5.35L6.43 5.35Q6.43 4.62 6.01 4.21L6.01 4.21L6.01 4.21Q5.59 3.81 4.80 3.81L4.80 3.81L2.21 3.81L2.21 6.93ZM11.66 12.46L11.66 12.46Q10.26 12.46 9.57 11.54L9.57 11.54L9.57 11.54Q8.88 10.63 8.88 8.61L8.88 8.61L8.88 8.61Q8.88 6.64 9.56 5.70L9.56 5.70L9.56 5.70Q10.25 4.76 11.65 4.76L11.65 4.76L11.65 4.76Q12.88 4.76 13.48 5.58L13.48 5.58L13.48 5.58Q14.07 6.40 14.07 8.22L14.07 8.22L14.07 8.95L10.08 8.95L10.08 8.95Q10.09 10.23 10.48 10.84L10.48 10.84L10.48 10.84Q10.86 11.44 11.69 11.44L11.69 11.44L11.69 11.44Q12.25 11.44 12.59 10.99L12.59 10.99L12.59 10.99Q12.94 10.54 12.94 9.79L12.94 9.79L14.07 9.79L14.07 9.79Q14.07 11.02 13.41 11.74L13.41 11.74L13.41 11.74Q12.74 12.46 11.66 12.46L11.66 12.46ZM10.09 7.92L12.87 7.92L12.87 7.92Q12.87 6.87 12.56 6.33L12.56 6.33L12.56 6.33Q12.25 5.78 11.65 5.78L11.65 5.78L11.65 5.78Q10.91 5.78 10.54 6.31L10.54 6.31L10.54 6.31Q10.16 6.83 10.09 7.92L10.09 7.92ZM17.70 12.46L17.70 12.46Q16.39 12.46 15.79 11.53L15.79 11.53L15.79 11.53Q15.18 10.60 15.18 8.61L15.18 8.61L15.18 8.61Q15.18 6.62 15.79 5.69L15.79 5.69L15.79 5.69Q16.41 4.76 17.70 4.76L17.70 4.76L17.70 4.76Q18.87 4.76 19.41 5.49L19.41 5.49L19.41 5.49Q19.95 6.22 19.95 7.66L19.95 7.66L18.76 7.66L18.76 7.66Q18.76 6.66 18.53 6.22L18.53 6.22L18.53 6.22Q18.30 5.78 17.70 5.78L17.70 5.78L17.70 5.78Q17.02 5.78 16.70 6.42L16.70 6.42L16.70 6.42Q16.38 7.06 16.38 8.34L16.38 8.34L16.38 8.88L16.38 8.88Q16.38 10.16 16.70 10.80L16.70 10.80L16.70 10.80Q17.01 11.44 17.70 11.44L17.70 11.44L17.70 11.44Q18.30 11.44 18.56 10.98L18.56 10.98L18.56 10.98Q18.82 10.51 18.82 9.56L18.82 9.56L19.95 9.56L19.95 9.56Q19.95 10.82 19.40 11.64L19.40 11.64L19.40 11.64Q18.84 12.46 17.70 12.46L17.70 12.46ZM23.07 12.46L23.07 12.46Q22.19 12.46 21.72 11.94L21.72 11.94L21.72 11.94Q21.25 11.41 21.25 10.23L21.25 10.23L21.25 4.93L22.40 4.93L22.40 10.15L22.40 10.15Q22.40 10.86 22.67 11.15L22.67 11.15L22.67 11.15Q22.93 11.44 23.44 11.44L23.44 11.44L23.44 11.44Q24.01 11.44 24.41 10.89L24.41 10.89L24.41 10.89Q24.81 10.35 24.81 9.42L24.81 9.42L24.81 4.93L25.96 4.93L25.96 12.29L25.09 12.29L24.93 11.44L24.85 11.44L24.85 11.44Q24.28 12.46 23.07 12.46L23.07 12.46ZM27.64 12.29L27.64 4.93L28.50 4.93L28.66 5.89L28.74 5.89L28.74 5.89Q28.90 5.40 29.20 5.08L29.20 5.08L29.20 5.08Q29.51 4.76 29.99 4.76L29.99 4.76L29.99 4.76Q30.18 4.76 30.34 4.81L30.34 4.81L30.34 4.81Q30.49 4.86 30.53 4.87L30.53 4.87L30.53 6.06L30.16 6.06L30.16 6.06Q29.55 6.06 29.17 6.47L29.17 6.47L29.17 6.47Q28.78 6.89 28.78 7.80L28.78 7.80L28.78 12.29L27.64 12.29ZM31.46 12.29L31.46 4.93L32.33 4.93L32.48 5.89L32.56 5.89L32.56 5.89Q32.72 5.40 33.03 5.08L33.03 5.08L33.03 5.08Q33.33 4.76 33.81 4.76L33.81 4.76L33.81 4.76Q34.01 4.76 34.16 4.81L34.16 4.81L34.16 4.81Q34.31 4.86 34.36 4.87L34.36 4.87L34.36 6.06L33.98 6.06L33.98 6.06Q33.38 6.06 32.99 6.47L32.99 6.47L32.99 6.47Q32.61 6.89 32.61 7.80L32.61 7.80L32.61 12.29L31.46 12.29Z"></path></g><!----><g data-v-423bf9ae="" id="a0a4425d-f136-49ee-93db-c0bcdb56cf38" transform="matrix(1,0,0,1,-5,-5)" stroke="none" fill="#F6E12D"><path d="M82.405 21.595l-3.999-4C70.625 9.813 59.874 5 48 5 24.252 5 5 24.252 5 48c0 11.874 4.813 22.624 12.594 30.405l4 4C29.376 90.187 40.126 95 52 95c23.748 0 43-19.252 43-43 0-11.874-4.812-22.624-12.595-30.405zM85 52c0 18.226-14.774 33-33 33a32.861 32.861 0 0 1-21.106-7.635A33.78 33.78 0 0 0 48 82c18.748 0 34-15.252 34-34a33.78 33.78 0 0 0-4.635-17.106A32.861 32.861 0 0 1 85 52zm-4-4c0 18.226-14.774 33-33 33a32.866 32.866 0 0 1-21.245-7.755A32.862 32.862 0 0 1 19 52c0-18.225 14.775-33 33-33a32.862 32.862 0 0 1 21.245 7.755A32.866 32.866 0 0 1 81 48zM48 6c9.818 0 18.853 3.396 26.013 9.062A42.788 42.788 0 0 0 52 9C28.252 9 9 28.252 9 52a42.788 42.788 0 0 0 6.062 22.013C9.396 66.853 6 57.818 6 48 6 24.841 24.841 6 48 6z"></path></g><!----></svg>